<svg xmlns="http://www.w3.org/2000/svg" width="256" height="256" viewBox="0 0 100 100"><rect width="100" height="100" rx="20" fill="#5d78ff"></rect><path d="M15.15 68.28L15.15 67.49L18.33 66.69L18.33 32.51L12.24 32.51Q12.24 35.74 10.49 38.71L10.49 38.71Q9.75 39.93 8.79 40.72L8.79 40.72L7.20 40.72L7.20 31.18L38.21 31.18L38.21 40.72L36.62 40.72Q35.61 39.93 34.87 38.71L34.87 38.71Q33.17 35.85 33.17 32.51L33.17 32.51L27.08 32.51L27.08 66.69L30.26 67.49L30.26 68.28L15.15 68.28ZM55.70 68.81L41.39 32.51L38.47 31.98L38.47 31.18L44.83 31.18Q47.64 31.18 49.44 32.46Q51.25 33.73 51.99 35.69L51.99 35.69L59.99 56.09L64.65 42.42L60.73 32.51L57.82 31.98L57.82 31.18L64.18 31.18Q66.99 31.18 68.74 32.43Q70.48 33.68 71.33 35.69L71.33 35.69L79.34 56.09L86.97 33.57L82.99 31.98L82.99 31.18L92.80 31.18L92.80 31.98L88.56 33.57L76.63 68.81L75.04 68.81L65.50 44.59L57.29 68.81L55.70 68.81Z" fill="#fff"></path></svg>